<svg xmlns="http://www.w3.org/2000/svg" xmlns:xlink="http://www.w3.org/1999/xlink" viewBox="0 0 500 500"><defs><clipPath id="freepik--clip-path--inject-21"><path d="M289.84,414.25s8.35-3.07,9.33-10-4.44-16.78-8.88-20.24a26,26,0,0,0-7.9-4.44s68.62-46.41,86.39-62.21,50.85-40.48,50.85-40.48,6.91-3.45,12.34,0,9,6.93,9.38,14.81c.23,4.47-8.88,10.86-8.88,10.86L309.05,404.77S294.34,414.93,289.84,414.25Z" style="fill:#fff;stroke:#263238;stroke-linecap:round;stroke-linejoin:round"></path></clipPath><clipPath id="freepik--clip-path-2--inject-21"><path d="M233.51,213.88s-6.58-3.3-13.49-7.57-16.79-8.89-19.42-10.54-4.82-3.86-9.54-.65c-9.12,6.18-3.95,24-3.95,26.32s-4.94,17.45-4.61,20.41,1,17.44,1,17.44,1.31,2.64,6.25,1.32c0,0,3.29-15.14,3.62-19.42a82.92,82.92,0,0,1,2.3-11.52l3.3,18.76-3.3,15.47s2.31,7.57,9.88,10.2S221,279,230.22,275.75c3.62-1.29,9.55-6.25,9.55-6.25s-3-33.57-3-35.22S236.15,221.12,233.51,213.88Z" style="fill:#fff;stroke:#263238;stroke-linecap:round;stroke-linejoin:round"></path></clipPath><clipPath id="freepik--clip-path-3--inject-21"><path d="M292.15,160l-14.3,4.77c-2.53.84-2.81,4.2-2.81,8.13s2.24,36.74,1.68,40.67S275.6,229,275.6,229a78.45,78.45,0,0,0,7,5.89,17.84,17.84,0,0,0,6.17,2.25l2-5.89,2.52,7.29s7.29,2.24,13.18,1.4,10.66-10.09,10.66-10.09L314,211.05s9-34.77,6.73-39-10.94-9.26-16.83-11.22A26.24,26.24,0,0,0,292.15,160Z" style="fill:#fff;stroke:#263238;stroke-linecap:round;stroke-linejoin:round"></path></clipPath></defs><g id="freepik--background-simple--inject-21"><path d="M313.13,109.59c-10.68-12.88-23.48-22.88-44.63-24.43-37.68-2.76-57.86,30.47-85.2,49.89-34.1,24.22-78.76,18.3-110.4,47.23-34.56,31.6-22.71,61.22,1,78s28.63,43.45,45.42,77,57.27,66.15,90.84,69.11c22.1,1.95,44.87-8.05,65-16,32.41-12.75,65.22-19.21,98.6-28.24,27.52-7.45,56.35-19.83,68.47-47.62,16.78-38.51,3.95-92.82-24.69-116.51s-53.32-26.66-73.07-47.4C332.09,137.73,323.64,122.26,313.13,109.59Z" style="fill:#282828"></path><path d="M313.13,109.59c-10.68-12.88-23.48-22.88-44.63-24.43-37.68-2.76-57.86,30.47-85.2,49.89-34.1,24.22-78.76,18.3-110.4,47.23-34.56,31.6-22.71,61.22,1,78s28.63,43.45,45.42,77,57.27,66.15,90.84,69.11c22.1,1.95,44.87-8.05,65-16,32.41-12.75,65.22-19.21,98.6-28.24,27.52-7.45,56.35-19.83,68.47-47.62,16.78-38.51,3.95-92.82-24.69-116.51s-53.32-26.66-73.07-47.4C332.09,137.73,323.64,122.26,313.13,109.59Z" style="fill:#fff;opacity:0.7000000000000001"></path></g><g id="freepik--Agreement--inject-21"><path d="M98.09,300.2l-12.6-9.33a71.9,71.9,0,0,1-9-7.9,81.86,81.86,0,0,1-6.18-7l-2-2.87,18.44-7.9S87.56,289,98.09,300.2Z" style="fill:#263238"></path><path d="M71.09,263.57s4,20.74,32.59,41,171.8,106.14,179.7,108.61,11.84,0,15.3-2.47S433.45,299.12,433.45,299.12,374.21,269,329.29,242.84,251.78,198.41,242.4,190s-20.24-16.78-20.24-16.78-75.53,50.35-102.69,64.67S71.09,263.57,71.09,263.57Z" style="fill:#282828;stroke:#263238;stroke-linecap:round;stroke-linejoin:round"></path><line x1="174.6" y1="236.62" x2="227.78" y2="200.56" style="fill:none;stroke:#fff;stroke-linecap:round;stroke-linejoin:round"></line><line x1="122.93" y1="271.66" x2="168.6" y2="240.69" style="fill:none;stroke:#fff;stroke-linecap:round;stroke-linejoin:round"></line><line x1="163.92" y1="263.63" x2="241.81" y2="210.82" style="fill:none;stroke:#fff;stroke-linecap:round;stroke-linejoin:round"></line><line x1="136.95" y1="281.92" x2="155.93" y2="269.05" style="fill:none;stroke:#fff;stroke-linecap:round;stroke-linejoin:round"></line><line x1="150.98" y1="292.17" x2="255.83" y2="221.07" style="fill:none;stroke:#fff;stroke-linecap:round;stroke-linejoin:round"></line><line x1="178.19" y1="293.48" x2="269.86" y2="231.33" style="fill:none;stroke:#fff;stroke-linecap:round;stroke-linejoin:round"></line><line x1="165" y1="302.43" x2="173.37" y2="296.75" style="fill:none;stroke:#fff;stroke-linecap:round;stroke-linejoin:round"></line><line x1="179.03" y1="312.68" x2="283.88" y2="241.58" style="fill:none;stroke:#fff;stroke-linecap:round;stroke-linejoin:round"></line><line x1="193.05" y1="322.94" x2="297.9" y2="251.84" style="fill:none;stroke:#fff;stroke-linecap:round;stroke-linejoin:round"></line><line x1="259.72" y1="297.49" x2="311.93" y2="262.09" style="fill:none;stroke:#fff;stroke-linecap:round;stroke-linejoin:round"></line><line x1="207.08" y1="333.19" x2="251.97" y2="302.75" style="fill:none;stroke:#fff;stroke-linecap:round;stroke-linejoin:round"></line><line x1="289.14" y1="297.31" x2="325.95" y2="272.34" style="fill:none;stroke:#fff;stroke-linecap:round;stroke-linejoin:round"></line><line x1="248.23" y1="325.05" x2="283.14" y2="301.38" style="fill:none;stroke:#fff;stroke-linecap:round;stroke-linejoin:round"></line><line x1="221.1" y1="343.44" x2="242.23" y2="329.12" style="fill:none;stroke:#fff;stroke-linecap:round;stroke-linejoin:round"></line><line x1="332.42" y1="287.73" x2="339.98" y2="282.6" style="fill:none;stroke:#fff;stroke-linecap:round;stroke-linejoin:round"></line><line x1="235.13" y1="353.7" x2="325.95" y2="292.11" style="fill:none;stroke:#fff;stroke-linecap:round;stroke-linejoin:round"></line><line x1="262.25" y1="355.07" x2="354" y2="292.85" style="fill:none;stroke:#fff;stroke-linecap:round;stroke-linejoin:round"></line><line x1="249.15" y1="363.95" x2="256.73" y2="358.82" style="fill:none;stroke:#fff;stroke-linecap:round;stroke-linejoin:round"></line><path d="M282.39,379.59A13.49,13.49,0,0,0,277.94,390c0,6.92,7.9,10.87,11.36,9.88s14.32-13.33,14.32-13.33-3-9.38-8.89-9.87S282.39,379.59,282.39,379.59Z" style="fill:#263238;stroke:#263238;stroke-linecap:round;stroke-linejoin:round"></path><path d="M289.84,414.25s8.35-3.07,9.33-10-4.44-16.78-8.88-20.24a26,26,0,0,0-7.9-4.44s68.62-46.41,86.39-62.21,50.85-40.48,50.85-40.48,6.91-3.45,12.34,0,9,6.93,9.38,14.81c.23,4.47-8.88,10.86-8.88,10.86L309.05,404.77S294.34,414.93,289.84,414.25Z" style="fill:#fff"></path><g style="clip-path:url(#freepik--clip-path--inject-21)"><path d="M441.35,291.71a21.68,21.68,0,0,0-.43-3.44c-3.92,3.4-11,9.39-23.92,19.9-26.66,21.72-47.89,37.52-47.89,37.52s23.2-17.28,14.81-13.33S357.26,352.11,341,365.44c-10.32,8.44-28.55,25.39-41.8,38.83h0c-1,6.91-9.33,10-9.33,10,4.5.68,19.21-9.48,19.21-9.48l123.42-102.2S441.58,296.18,441.35,291.71Z" style="fill:#282828"></path><path d="M441.35,291.71a21.68,21.68,0,0,0-.43-3.44c-3.92,3.4-11,9.39-23.92,19.9-26.66,21.72-47.89,37.52-47.89,37.52s23.2-17.28,14.81-13.33S357.26,352.11,341,365.44c-10.32,8.44-28.55,25.39-41.8,38.83h0c-1,6.91-9.33,10-9.33,10,4.5.68,19.21-9.48,19.21-9.48l123.42-102.2S441.58,296.18,441.35,291.71Z" style="fill:#fff;opacity:0.5"></path></g><path d="M289.84,414.25s8.35-3.07,9.33-10-4.44-16.78-8.88-20.24a26,26,0,0,0-7.9-4.44s68.62-46.41,86.39-62.21,50.85-40.48,50.85-40.48,6.91-3.45,12.34,0,9,6.93,9.38,14.81c.23,4.47-8.88,10.86-8.88,10.86L309.05,404.77S294.34,414.93,289.84,414.25Z" style="fill:none;stroke:#263238;stroke-linecap:round;stroke-linejoin:round"></path></g><g id="freepik--Plants--inject-21"><path d="M343.57,153.09s4.81-3.69,6.07-6.09c1.07-2,1.86-4.93.82-7.14a4.09,4.09,0,0,0-5.77-1.93c-2.95,1.78-3.35,8-2.65,11C342.1,149.18,343.52,153.13,343.57,153.09Z" style="fill:#263238"></path><path d="M299.1,183.8c.2.18,3.56,2.69,3.58,2.63s2-5.74,1.7-8.42c-.23-2.3-1.17-5.15-3.25-6.41a4.08,4.08,0,0,0-5.88,1.56C293.77,176.28,296.86,181.68,299.1,183.8Z" style="fill:#263238"></path><path d="M399.24,159.58s-17.69,17.74-17.91,39.85,17.12,40.19,17.12,40.19,17.69-17.75,17.9-39.85S399.24,159.58,399.24,159.58Z" style="fill:#263238"></path><path d="M373.63,212.56a6.17,6.17,0,0,0,.64-.79c1.3-1.9,2.42-4.69,1.64-7a4.09,4.09,0,0,0-5.51-2.58c-2.38,1.08-3.59,4.86-3.89,8-.94-.23-1.79-.41-2.52-.54l-.91-2.14c-.34-.74-.56-1.48-.86-2.23-.4-1.11-.76-2.28-1.12-3.44,1.39-.59,5.43-2.42,6.95-4.05s3.1-4.27,2.68-6.67a4.09,4.09,0,0,0-5.05-3.39c-3.32.94-5.35,6.82-5.46,9.91,0,.1,0,.75.09,1.52-.31-1.14-.63-2.28-.92-3.45-.8-3.32-1.52-6.73-2.25-10.15-.15-.71-.31-1.41-.47-2.12,1.17-.5,5.57-2.43,7.16-4.15s3.1-4.26,2.67-6.67a4.08,4.08,0,0,0-5-3.39c-3.32.94-5.35,6.83-5.47,9.91,0,.11.05.89.12,1.76-.42-1.85-.87-3.68-1.37-5.49a72,72,0,0,0-3.12-9.13c.41-.17,5.61-2.34,7.38-4.24,1.57-1.69,3.1-4.27,2.68-6.67a4.09,4.09,0,0,0-5.05-3.39c-3.32.94-5.35,6.82-5.47,9.91,0,.21.21,3,.32,4a.76.76,0,0,0,0-.11,53.93,53.93,0,0,0-4.62-8.26,73.44,73.44,0,0,0-5.15-6.73c-1.69-2-3.36-3.73-4.85-5.25-.81-.82-1.57-1.55-2.28-2.22h.07c.06,0-1.56-3.87-1.69-4.11-1.51-2.69-6-7-9.39-6.31a4.08,4.08,0,0,0-2.93,5.32c.72,2.33,3.26,3.93,5.42,4.71s7.1.5,8.31.41c.73.72,1.5,1.49,2.33,2.36,1.46,1.55,3.08,3.31,4.72,5.34.44.54.89,1.14,1.33,1.72-.95-.81-2.27-1.9-2.41-2-2.58-1.69-8.55-3.44-11.24-1.27a4.09,4.09,0,0,0-.16,6.08c1.72,1.73,4.71,2,7,1.67s6.67-2.91,7.6-3.49c1,1.29,1.93,2.63,2.86,4.09a52.86,52.86,0,0,1,4.39,8.26c.07.16.12.34.18.51-.4-.48-2.79-3-3-3.12-2.38-2-8.13-4.36-11-2.5a4.1,4.1,0,0,0-.82,6c1.52,1.91,4.46,2.48,6.76,2.43,2.66-.06,7.92-2.62,8.12-2.72a74,74,0,0,1,2.82,8.9c.56,2.23,1,4.52,1.5,6.82-.53-.61-2.75-2.92-2.93-3.07-2.38-2-8.13-4.36-11-2.5a4.09,4.09,0,0,0-.82,6c1.52,1.91,4.46,2.49,6.76,2.44,2.59-.06,7.65-2.49,8.07-2.7.21,1.05.42,2.09.62,3.14.66,3.42,1.3,6.85,2,10.22.26,1.17.55,2.31.84,3.46-.83-.9-2.38-2.5-2.53-2.62-2.37-2-8.12-4.37-11-2.51a4.1,4.1,0,0,0-.82,6c1.51,1.91,4.46,2.48,6.76,2.43s6.61-2,7.81-2.57c.5,1.9,1,3.77,1.65,5.59.28.78.52,1.6.83,2.33.16.39.31.78.47,1.16l-.67-.07s-.06,1.08,0,2.84c-2.51-1.85-6.15-3.46-8.54-2.4a4.09,4.09,0,0,0-1.73,5.83,4.33,4.33,0,0,0,.53.74,15.71,15.71,0,0,0,3.17,7.35c.13.16,1.83,1.77,2.72,2.58-.86-.49-1.72-1-2.61-1.48-1.29-.74-2.62-1.56-3.92-2.34L349,221c-.68-.43-1.29-.92-1.94-1.39-.95-.7-1.89-1.47-2.83-2.24.82-1.27,3.19-5,3.56-7.22s.23-5.27-1.45-7a4.09,4.09,0,0,0-6.08,0c-2.26,2.61-.7,8.64.91,11.28.05.08.44.6.92,1.22-.89-.78-1.79-1.56-2.67-2.38-2.51-2.33-5-4.77-7.48-7.22l-1.56-1.51c.7-1.06,3.3-5.1,3.68-7.4s.23-5.27-1.45-7a4.08,4.08,0,0,0-6.08,0c-2.25,2.62-.7,8.65.91,11.28.06.09.53.71,1.07,1.4-1.37-1.3-2.76-2.59-4.17-3.82a72.37,72.37,0,0,0-7.65-5.9c.26-.37,3.4-5,3.83-7.6.37-2.27.22-5.27-1.45-7a4.09,4.09,0,0,0-6.08-.05c-2.26,2.62-.7,8.65.9,11.28.12.19,1.86,2.42,2.5,3.2l-.09-.07a53.91,53.91,0,0,0-8.42-4.34,72.22,72.22,0,0,0-8-2.77c-2.52-.74-4.86-1.26-6.94-1.71-1.13-.23-2.17-.42-3.14-.59l.06,0c.05,0-3.44-2.37-3.67-2.49-2.74-1.41-8.87-2.52-11.32-.09a4.1,4.1,0,0,0,.49,6.07c1.89,1.54,4.89,1.47,7.13.93s6.19-3.5,7.15-4.24c1,.19,2.07.41,3.25.68,2.06.49,4.39,1.06,6.88,1.85.66.21,1.37.46,2.06.69-1.24-.15-2.95-.33-3.12-.33-3.08,0-9,1.85-10.08,5.14a4.1,4.1,0,0,0,3.23,5.16c2.38.5,5-1,6.75-2.46s4-6.11,4.41-7.1c1.52.54,3.06,1.12,4.64,1.83a53,53,0,0,1,8.22,4.46c.15.11.29.23.44.33-.6-.18-4-.93-4.21-1-3.06-.32-9.18.85-10.58,4a4.09,4.09,0,0,0,2.64,5.48c2.32.76,5.09-.39,7-1.7,2.18-1.51,5.16-6.55,5.27-6.74a71.36,71.36,0,0,1,7.26,5.86c1.71,1.55,3.37,3.2,5,4.86-.79-.22-3.91-.91-4.14-.94-3.07-.33-9.18.84-10.59,4a4.09,4.09,0,0,0,2.64,5.48c2.32.76,5.09-.39,7-1.7,2.12-1.48,5-6.29,5.24-6.7.75.76,1.5,1.51,2.24,2.27,2.44,2.49,4.87,5,7.35,7.41.85.83,1.73,1.62,2.6,2.41-1.19-.29-3.36-.77-3.55-.79-3.07-.33-9.18.84-10.58,4a4.09,4.09,0,0,0,2.63,5.48c2.32.76,5.1-.39,7-1.7s4.4-5.32,5.09-6.45c1.46,1.31,2.94,2.58,4.46,3.75.66.5,1.31,1,2,1.48l2,1.36c1.37.87,2.65,1.69,4,2.48.65.4,1.28.76,1.92,1.14-1.17-.47-3-1.19-3.19-1.23-3-.79-9.21-.56-11.07,2.34a4.09,4.09,0,0,0,1.78,5.82c2.17,1.1,5.09.39,7.16-.62,2.28-1.12,5.75-5.29,6.17-5.8,1.57.92,3.11,1.81,4.56,2.61,3.89,2.15,7.28,3.87,9.91,5.15,8.5,7.57,20.61,8.56,20.61,8.56s.84-14.51-7.57-24.18A29.91,29.91,0,0,0,373.63,212.56Zm-15.57,13.93c.28-.59,2.4-5.17,2.58-7.77.48-.08,1-.18,1.43-.28a33.56,33.56,0,0,0,5.17,12.86q-2.34-1.16-5-2.56C360.88,228.05,359.49,227.29,358.06,226.49Z" style="fill:#263238"></path><path d="M437.16,210.68s-14.52.24-23.54,9.35-9.11,23.63-9.11,23.63,14.52-.24,23.54-9.35S437.16,210.68,437.16,210.68Z" style="fill:#263238"></path><polygon points="399.11 219.5 413.55 206.88 412.95 206.19 399.12 218.27 399.28 201.47 399.36 201.52 411.67 184.05 410.92 183.53 399.3 200.02 399.69 159.58 398.78 159.57 398.51 187.02 389.54 179.03 388.93 179.71 398.5 188.23 398.3 207.85 384.71 195.48 384.1 196.16 398.29 209.08 398.12 226.95 387.89 218.69 387.31 219.4 398.11 228.11 397.99 239.62 398.91 239.62 399.11 219.49 399.11 219.5" style="fill:#fff"></polygon><polygon points="385.9 224.26 384.99 224.14 383.7 234.28 377.67 227.35 377.68 227.35 376.3 215.04 375.4 215.14 376.63 226.15 361.65 208.92 360.96 209.52 371.12 221.21 364.58 221.2 364.58 222.11 371.92 222.13 379.05 230.32 368.82 230.19 368.81 231.11 379.85 231.25 386.33 238.7 379.11 239.04 379.15 239.95 387.1 239.58 391.41 244.55 392.1 243.95 384.5 235.21 385.9 224.26" style="fill:#fff"></polygon><polygon points="420.31 228.37 432.48 226.07 432.31 225.17 421.42 227.22 437.49 211 436.84 210.36 425.94 221.37 425.46 214.84 424.55 214.91 425.08 222.23 417.44 229.95 416.81 219.74 415.9 219.8 416.58 230.82 409.63 237.84 408.76 230.66 407.85 230.77 408.81 238.66 404.18 243.34 404.83 243.98 412.98 235.75 424 236.33 424.05 235.41 413.84 234.88 420.3 228.35 420.31 228.37" style="fill:#fff"></polygon><path d="M139.61,155.84s-3.72-2-4.85-3.47c-1-1.28-1.84-3.17-1.38-4.8a2.84,2.84,0,0,1,3.72-2c2.23.88,3.22,5.09,3.08,7.23C140.17,153,139.65,155.86,139.61,155.84Z" style="fill:#263238"></path><path d="M173.57,171.75c-.11.15-2.12,2.25-2.14,2.22s-2-3.7-2.13-5.58c-.11-1.59.21-3.65,1.49-4.76a2.83,2.83,0,0,1,4.2.4C176.36,166,174.87,170.05,173.57,171.75Z" style="fill:#263238"></path><path d="M102.25,166.66s14.14,10.12,16.83,25.23S112,221.37,112,221.37s-14.14-10.12-16.83-25.23S102.25,166.66,102.25,166.66Z" style="fill:#263238"></path><path d="M125.86,200a3.6,3.6,0,0,1-.53-.47c-1.11-1.15-2.2-2.93-1.93-4.6a2.83,2.83,0,0,1,3.47-2.4c1.76.47,3,2.91,3.58,5,.62-.26,1.18-.48,1.66-.66l.39-1.57c.14-.54.21-1.08.32-1.62.15-.81.26-1.65.38-2.48-1-.25-4-1-5.22-2s-2.61-2.57-2.6-4.26a2.83,2.83,0,0,1,3.06-2.9c2.39.26,4.45,4.06,4.88,6.15,0,.07.06.52.11,1.06.09-.82.17-1.64.23-2.47.17-2.37.27-4.78.38-7.2,0-.51.05-1,.08-1.51-.86-.21-4.09-1-5.38-2s-2.61-2.56-2.59-4.26a2.83,2.83,0,0,1,3.06-2.9c2.38.26,4.45,4.06,4.88,6.16,0,.07.07.61.12,1.22.08-1.32.17-2.63.31-3.92a49.8,49.8,0,0,1,1.09-6.61c-.3-.07-4.11-.95-5.54-2-1.27-1-2.61-2.57-2.6-4.26a2.83,2.83,0,0,1,3.07-2.9c2.38.26,4.44,4,4.87,6.15,0,.15.21,2.11.25,2.81,0,0,0,0,0-.08a36.42,36.42,0,0,1,2.22-6.19,50.21,50.21,0,0,1,2.75-5.2c.92-1.56,1.87-2.94,2.71-4.15.46-.65.9-1.24,1.31-1.78h0s.62-2.83.69-3c.72-2,3.3-5.48,5.7-5.4a2.84,2.84,0,0,1,2.62,3.31c-.23,1.67-1.78,3.06-3.18,3.84s-4.8,1.16-5.64,1.24c-.41.57-.85,1.19-1.32,1.88-.82,1.23-1.73,2.62-2.62,4.2-.24.42-.47.88-.71,1.32.56-.66,1.33-1.56,1.42-1.64,1.57-1.45,5.46-3.34,7.55-2.16a2.83,2.83,0,0,1,.8,4.14c-1,1.38-3,1.9-4.59,1.95s-4.9-1.23-5.6-1.52c-.52,1-1,2-1.49,3.13a37.09,37.09,0,0,0-2.06,6.16l-.06.37c.22-.38,1.57-2.35,1.68-2.48,1.4-1.61,5.06-3.92,7.26-3a2.84,2.84,0,0,1,1.26,4c-.82,1.49-2.77,2.22-4.35,2.45-1.83.26-5.72-.89-5.87-.93a50.47,50.47,0,0,0-.91,6.41c-.13,1.6-.2,3.22-.25,4.84.3-.48,1.56-2.31,1.66-2.43,1.4-1.62,5.06-3.92,7.27-3a2.83,2.83,0,0,1,1.25,4c-.82,1.48-2.77,2.21-4.35,2.44-1.78.26-5.52-.83-5.83-.92,0,.74,0,1.48-.07,2.22,0,2.42-.1,4.84-.22,7.23,0,.83-.11,1.64-.18,2.46.47-.71,1.34-2,1.43-2.08,1.4-1.62,5.06-3.92,7.27-3a2.83,2.83,0,0,1,1.25,4c-.82,1.48-2.77,2.21-4.35,2.44s-4.75-.61-5.64-.86c-.12,1.35-.27,2.7-.48,4-.11.56-.18,1.14-.31,1.68-.06.29-.12.57-.19.85l.45-.12s.17.73.32,1.94c1.5-1.55,3.81-3.07,5.57-2.62a2.84,2.84,0,0,1,1.85,3.8,4.11,4.11,0,0,1-.27.56,11.11,11.11,0,0,1-1.33,5.4c-.07.12-1.05,1.42-1.57,2.07.54-.43,1.07-.85,1.62-1.31.79-.65,1.61-1.37,2.41-2l1.21-1.13c.42-.37.78-.78,1.17-1.18.57-.59,1.13-1.22,1.68-1.86-.71-.77-2.76-3.06-3.26-4.53s-.76-3.58.18-5a2.84,2.84,0,0,1,4.16-.73c1.84,1.53,1.47,5.84.67,7.82,0,.07-.24.47-.49.94.52-.63,1-1.27,1.56-1.93,1.44-1.88,2.86-3.84,4.29-5.8.29-.41.6-.81.89-1.22-.6-.64-2.84-3.11-3.37-4.64s-.76-3.58.18-5a2.83,2.83,0,0,1,4.16-.73c1.85,1.53,1.47,5.83.68,7.82,0,.07-.29.55-.58,1.09.79-1.06,1.59-2.1,2.42-3.1a48.68,48.68,0,0,1,4.56-4.91c-.22-.23-2.9-3.07-3.49-4.77-.52-1.51-.76-3.58.18-5a2.85,2.85,0,0,1,4.16-.73c1.84,1.54,1.47,5.84.67,7.83,0,.14-1,1.87-1.34,2.47l.06,0a36.77,36.77,0,0,1,5.26-3.94,50.7,50.7,0,0,1,5.16-2.82c1.64-.79,3.18-1.42,4.56-2,.74-.29,1.43-.54,2.07-.77l0,0s2.08-2,2.23-2.13c1.71-1.28,5.78-2.75,7.73-1.36a2.84,2.84,0,0,1,.37,4.21c-1.12,1.27-3.18,1.57-4.78,1.45s-4.64-1.68-5.38-2.08c-.66.25-1.37.52-2.15.84-1.35.57-2.88,1.23-4.49,2.06l-1.33.71c.83-.25,2-.57,2.09-.58,2.11-.35,6.4.22,7.49,2.35a2.83,2.83,0,0,1-1.61,3.9c-1.58.62-3.55-.07-4.91-.9s-3.41-3.73-3.84-4.36c-1,.55-2,1.12-3,1.79a35.83,35.83,0,0,0-5.11,4l-.27.27c.39-.19,2.61-1.09,2.77-1.14,2.06-.57,6.38-.47,7.71,1.53a2.83,2.83,0,0,1-1.18,4.05c-1.5.79-3.53.32-5-.36-1.66-.79-4.28-3.9-4.38-4a50.34,50.34,0,0,0-4.29,4.84c-1,1.26-1.94,2.58-2.88,3.91.51-.24,2.57-1.08,2.73-1.12,2.06-.58,6.38-.48,7.7,1.52a2.83,2.83,0,0,1-1.18,4c-1.5.79-3.53.32-5-.36-1.63-.76-4.15-3.73-4.36-4-.43.6-.86,1.2-1.28,1.81-1.38,2-2.76,4-4.17,5.91-.5.67-1,1.31-1.51,2,.78-.34,2.21-.92,2.34-.95,2.06-.58,6.38-.48,7.7,1.52a2.83,2.83,0,0,1-1.17,4.05c-1.5.79-3.53.32-5-.36s-3.62-3.13-4.23-3.83c-.85,1.06-1.71,2.1-2.62,3.08-.4.42-.78.87-1.18,1.24L143.35,205c-.84.76-1.62,1.47-2.42,2.15l-1.18,1c.74-.46,1.93-1.16,2-1.21,2-.89,6.24-1.44,7.85.33a2.84,2.84,0,0,1-.55,4.19c-1.37,1-3.44.85-5,.39-1.69-.5-4.54-3-4.89-3.26-1,.82-1.92,1.6-2.82,2.32-2.41,1.91-4.54,3.48-6.19,4.66-5,6.15-13.13,8.22-13.13,8.22s-2.24-9.83,2.41-17.42A20.61,20.61,0,0,1,125.86,200Zm12.26,7.75a21,21,0,0,1-2.67-5c-.33,0-.67,0-1,0a23.13,23.13,0,0,1-2.06,9.39c1-.7,2-1.48,3.15-2.32C136.36,209.14,137.23,208.46,138.12,207.75Z" style="fill:#263238"></path><path d="M82.15,206s10-1.5,17.19,3.7,9,15.13,9,15.13-10,1.51-17.19-3.69S82.15,206,82.15,206Z" style="fill:#263238"></path><polygon points="109.21 207.67 97.88 200.69 98.21 200.15 109.06 206.83 107.02 195.35 106.98 195.39 96.55 184.85 97 184.4 106.85 194.36 101.93 166.72 102.56 166.61 105.89 185.37 111.11 178.87 111.61 179.27 106.04 186.2 108.42 199.61 116.31 189.58 116.81 189.97 108.57 200.44 110.74 212.66 116.8 205.83 117.27 206.25 110.89 213.45 112.28 221.31 111.66 221.43 109.21 207.67 109.21 207.67" style="fill:#fff"></polygon><polygon points="118.8 209.41 119.41 209.23 121.46 216.02 124.79 210.59 124.78 210.59 124.31 202 124.94 201.97 125.36 209.65 133.64 196.13 134.18 196.46 128.57 205.63 133.04 204.87 133.15 205.5 128.13 206.35 124.19 212.78 131.17 211.52 131.28 212.14 123.74 213.51 120.16 219.35 125.14 218.75 125.22 219.38 119.74 220.04 117.35 223.94 116.81 223.6 121.01 216.75 118.8 209.41" style="fill:#fff"></polygon><polygon points="95.72 216.18 87.12 216 87.13 215.37 94.82 215.52 81.96 206.26 82.33 205.74 91.06 212.03 90.64 207.51 91.27 207.45 91.74 212.52 97.86 216.93 97.12 209.87 97.75 209.8 98.55 217.43 104.11 221.43 103.89 216.42 104.52 216.39 104.77 221.91 108.47 224.57 108.1 225.09 101.58 220.39 94.1 222.05 93.96 221.43 100.89 219.89 95.72 216.17 95.72 216.18" style="fill:#fff"></polygon></g><g id="freepik--Characters--inject-21"><path d="M265.79,211.62s-3.37,2.31-3.8,2.62-1.27,8-1.27,8.37,6-.11,7.1-1.27,1.16-4.77,1.16-4.77A7,7,0,0,0,265.79,211.62Z" style="fill:#fff;stroke:#263238;stroke-linecap:round;stroke-linejoin:round"></path><path d="M275,175.15l-.56,25.25-8.69,11.22s3.36,2.52,3.08,5.32l9.54-5.89s0-25.24-.56-31.69S275.6,172.91,275,175.15Z" style="fill:#fff;stroke:#263238;stroke-linecap:round;stroke-linejoin:round"></path><path d="M260.18,222.83s1.68-5.32,2-6.17,9-.84,9-.84a10.28,10.28,0,0,1,.29,2.25c0,1.12-2,2.24-2,2.24a4.34,4.34,0,0,1-1.68,3.65A25.34,25.34,0,0,1,262.7,227l-3.37-1.12Z" style="fill:#fff;stroke:#263238;stroke-linecap:round;stroke-linejoin:round"></path><path d="M265.06,212.44s-1.9,0-2.22.53.21,5.3.85,5.3,1.9.42,2.11-.85S266.44,212.23,265.06,212.44Z" style="fill:#fff;stroke:#263238;stroke-linecap:round;stroke-linejoin:round"></path><path d="M217.06,348.81s-2.39,5.52-1.73,7.49,1.67,3.23,6.17,1.73,15-9.54,15-11.52-12.51.66-12.51.66S223.31,349.14,217.06,348.81Z" style="fill:#fff;stroke:#263238;stroke-linecap:round;stroke-linejoin:round"></path><path d="M189.29,330.3s-.64,4.85-.21,5.6a4.15,4.15,0,0,0,3.45,1.73c1.51-.11,2.48-.11,2.8-1.3s.54-2.37.86-3.34a5.25,5.25,0,0,0-.43-4.63c-1.19-2.05-5.4-1.43-6.74,2.36" style="fill:#fff;stroke:#263238;stroke-linecap:round;stroke-linejoin:round"></path><path d="M199.28,266.86s.33,14.48.33,16.13-5.92,13.17-5.92,16.13-4.67,31.6-4.67,31.6a4.55,4.55,0,0,0,3.29,2,5.87,5.87,0,0,0,3.29-1s9-29.29,11.58-32.25,7.24-14.81,7.24-14.81,3,17.77,2.64,20.07-3.29,12.18-3,17.12,2.63,28.3,2.63,28.3a4.57,4.57,0,0,0,4.61,1.65,8,8,0,0,0,4.6-3.62s3.95-31.6,4.28-34.89,3.95-23.37,4.28-30.28.33-16.46.33-16.46a40.56,40.56,0,0,1-19.75-1A77,77,0,0,1,199.94,259Z" style="fill:#263238;stroke:#263238;stroke-linecap:round;stroke-linejoin:round"></path><path d="M225.9,170.87a43.75,43.75,0,0,1,1.16,5.11,24.25,24.25,0,0,1-.23,2.55s1.86.93,1.86,2.09-1.63,3.25-1.63,3.25l-.69,5.57c-.24,1.85-1.63,3.94-3,4.4a12.61,12.61,0,0,1-3.94.24l-.7,7.65-13.23-4.87.93-7s-3-8.12-1.62-12.76,7.19-5.8,10.67-7S225.9,170.87,225.9,170.87Z" style="fill:#fff;stroke:#263238;stroke-linecap:round;stroke-linejoin:round"></path><path d="M205.72,192s-7-8.12-7.43-15.78,2.32-12.53,7-14.15,7.19-1.17,7.19-1.17-3.48-.69.24-2.32,7.89,1.16,7.89,1.16-2.32-1.85.46-1.62,3.94,1.62,6.5,7.43-4.41,7.88-5.57,8.35,2.09,1.86,1.62,3-3,3-3,3l.69,5.11s-1.16,1.85-1.85.69-.93-3.48-3-2.09.46,6,1.16,6-1.63,2.55-4.64,3.48a8.07,8.07,0,0,1-4.87.23A3.34,3.34,0,0,1,205.72,192Z" style="fill:#263238;stroke:#263238;stroke-linecap:round;stroke-linejoin:round"></path><path d="M202.7,196.86a4,4,0,0,1,4.41-2.09c3,.7,9.28,3.25,10.67,5.11s3,7.42,3,7.42l-17.17-7.66S201.07,198.48,202.7,196.86Z" style="fill:#fff;stroke:#263238;stroke-linecap:round;stroke-linejoin:round"></path><path d="M189.63,259.38l.49,2.45V267l-.74,2-1.22.49v-1.23l.73,4.67-1.47,1.22s-3.19-5.15-3.93-6.62,0-8.19,0-8.19S184.72,260.61,189.63,259.38Z" style="fill:#fff;stroke:#263238;stroke-linecap:round;stroke-linejoin:round"></path><path d="M233.51,213.88s-6.58-3.3-13.49-7.57-16.79-8.89-19.42-10.54-4.82-3.86-9.54-.65c-9.12,6.18-3.95,24-3.95,26.32s-4.94,17.45-4.61,20.41,1,17.44,1,17.44,1.31,2.64,6.25,1.32c0,0,3.29-15.14,3.62-19.42a82.92,82.92,0,0,1,2.3-11.52l3.3,18.76-3.3,15.47s2.31,7.57,9.88,10.2S221,279,230.22,275.75c3.62-1.29,9.55-6.25,9.55-6.25s-3-33.57-3-35.22S236.15,221.12,233.51,213.88Z" style="fill:#fff"></path><g style="clip-path:url(#freepik--clip-path-2--inject-21)"><path d="M230.22,275.75c3.62-1.29,9.55-6.25,9.55-6.25s-1.28-14.5-2.16-24.9a1.23,1.23,0,0,0-1.3.22c-2.27,1.89-1.51,18.56-3,17.81s-8.71-21.23-14.4-29.56,1.9,4.92.38,9.47-17-26.15-25.39-29.94-1.52,6.82-1.52,6.82l1.53,18.06c.7-3.81,1.78-7.81,1.78-7.81l3.3,18.76-3.3,15.47s2.31,7.57,9.88,10.2S221,279,230.22,275.75Z" style="fill:#282828"></path><path d="M230.22,275.75c3.62-1.29,9.55-6.25,9.55-6.25s-1.28-14.5-2.16-24.9a1.23,1.23,0,0,0-1.3.22c-2.27,1.89-1.51,18.56-3,17.81s-8.71-21.23-14.4-29.56,1.9,4.92.38,9.47-17-26.15-25.39-29.94-1.52,6.82-1.52,6.82l1.53,18.06c.7-3.81,1.78-7.81,1.78-7.81l3.3,18.76-3.3,15.47s2.31,7.57,9.88,10.2S221,279,230.22,275.75Z" style="fill:#fff;opacity:0.5"></path></g><path d="M233.51,213.88s-6.58-3.3-13.49-7.57-16.79-8.89-19.42-10.54-4.82-3.86-9.54-.65c-9.12,6.18-3.95,24-3.95,26.32s-4.94,17.45-4.61,20.41,1,17.44,1,17.44,1.31,2.64,6.25,1.32c0,0,3.29-15.14,3.62-19.42a82.92,82.92,0,0,1,2.3-11.52l3.3,18.76-3.3,15.47s2.31,7.57,9.88,10.2S221,279,230.22,275.75c3.62-1.29,9.55-6.25,9.55-6.25s-3-33.57-3-35.22S236.15,221.12,233.51,213.88Z" style="fill:none;stroke:#263238;stroke-linecap:round;stroke-linejoin:round"></path><path d="M195.66,229.67s-3-8.19-5.37-14.74" style="fill:none;stroke:#263238;stroke-linecap:round;stroke-linejoin:round"></path><path d="M226.6,214.53s4.94-1.31,6.91-.65,11.85,27,11.85,27l13.17-16.12s2-2.64,5.92,3l-16.78,31.59s-2,3-5.27.33S222.65,231,222.65,231" style="fill:#fff;stroke:#263238;stroke-linecap:round;stroke-linejoin:round"></path><path d="M313.75,304.67S313.47,316,316,319.41s5.61,2.46,5.61-1.22-1.4-11.37-3.37-14.74S313.75,304.67,313.75,304.67Z" style="fill:#fff;stroke:#263238;stroke-linecap:round;stroke-linejoin:round"></path><path d="M281.21,284.54s-8.69,5.61-9.25,8.41,10.09-.28,13.18-4.21S285.14,283.42,281.21,284.54Z" style="fill:#fff;stroke:#263238;stroke-linecap:round;stroke-linejoin:round"></path><path d="M277.85,227s-1.13,19.91.28,26.93,1.12,32.25,1.12,32.25,2,.56,3.64,1.12,4.21-2.24,4.21-2.24l4.21-31.41,2.8-12.06,6.73,26.64,12.91,37.86s.84.85,3.64,1.13a2.62,2.62,0,0,0,3.09-2.25l-3.93-41.23-2.8-35.06s-11.22,0-18.23-.84a51.16,51.16,0,0,1-14.31-4.48L277.57,222Z" style="fill:#263238;stroke:#263238;stroke-linecap:round;stroke-linejoin:round"></path><path d="M292.15,160l-14.3,4.77c-2.53.84-2.81,4.2-2.81,8.13s2.24,36.74,1.68,40.67S275.6,229,275.6,229a78.45,78.45,0,0,0,7,5.89,17.84,17.84,0,0,0,6.17,2.25l2-5.89,2.52,7.29s7.29,2.24,13.18,1.4,10.66-10.09,10.66-10.09L314,211.05s9-34.77,6.73-39-10.94-9.26-16.83-11.22A26.24,26.24,0,0,0,292.15,160Z" style="fill:#fff"></path><g style="clip-path:url(#freepik--clip-path-3--inject-21)"><path d="M315.14,187.21s-2.66,7.58-4.93,16.3-9.85,24.25-10.61,25.39-15.92-19.33-14.78-16.3a74.5,74.5,0,0,1,2.27,8.72l-11-28.89c.51,9.45,1,19.13.67,21.15-.56,3.93-1.12,15.42-1.12,15.42a78.45,78.45,0,0,0,7,5.89,17.84,17.84,0,0,0,6.17,2.25l2-5.89,2.52,7.29s7.29,2.24,13.18,1.4,10.66-10.09,10.66-10.09L314,211.05s2.52-9.77,4.55-19.58Z" style="fill:#282828"></path><path d="M315.14,187.21s-2.66,7.58-4.93,16.3-9.85,24.25-10.61,25.39-15.92-19.33-14.78-16.3a74.5,74.5,0,0,1,2.27,8.72l-11-28.89c.51,9.45,1,19.13.67,21.15-.56,3.93-1.12,15.42-1.12,15.42a78.45,78.45,0,0,0,7,5.89,17.84,17.84,0,0,0,6.17,2.25l2-5.89,2.52,7.29s7.29,2.24,13.18,1.4,10.66-10.09,10.66-10.09L314,211.05s2.52-9.77,4.55-19.58Z" style="fill:#fff;opacity:0.5"></path></g><path d="M292.15,160l-14.3,4.77c-2.53.84-2.81,4.2-2.81,8.13s2.24,36.74,1.68,40.67S275.6,229,275.6,229a78.45,78.45,0,0,0,7,5.89,17.84,17.84,0,0,0,6.17,2.25l2-5.89,2.52,7.29s7.29,2.24,13.18,1.4,10.66-10.09,10.66-10.09L314,211.05s9-34.77,6.73-39-10.94-9.26-16.83-11.22A26.24,26.24,0,0,0,292.15,160Z" style="fill:none;stroke:#263238;stroke-linecap:round;stroke-linejoin:round"></path><polyline points="287.1 161.69 282.89 170.67 287.38 176.84 282.05 181.04 289.35 191.42" style="fill:#fff;stroke:#263238;stroke-linecap:round;stroke-linejoin:round"></polyline><path d="M307.3,162.25l2.8,12.62-6.73,1.69,3.08,4.48s-4.2,4.77-8.13,7-10.94,6.45-10.94,6.45l2,30.85" style="fill:#fff;stroke:#263238;stroke-linecap:round;stroke-linejoin:round"></path><path d="M290.47,160s-.84,9.82-.84,15.43a70.17,70.17,0,0,0,1.68,12.9s8.13-11.5,10.66-16.27,3.64-9,2-11.22-3.09-2-3.09-2S293,156.64,290.47,160Z" style="fill:#fff;stroke:#263238;stroke-linecap:round;stroke-linejoin:round"></path><polygon points="291.59 173.75 292.15 176 290.19 182.17 291.31 188.34 294.95 183.01 294.39 176.56 296.36 174.31 294.95 170.11 291.59 173.75" style="fill:#263238"></polygon><polyline points="289.91 174.31 294.39 171.79 298.88 176.28" style="fill:none;stroke:#263238;stroke-linecap:round;stroke-linejoin:round"></polyline><polygon points="317.11 233.77 315.43 239.66 315.99 244.15 317.11 244.15 317.67 241.63 317.95 248.08 320.76 248.36 323.84 240.78 323.84 234.33 317.11 233.77" style="fill:#fff;stroke:#263238;stroke-linecap:round;stroke-linejoin:round"></polygon><path d="M318,174.87s-4.77,7-5.05,10.38.85,7.29,1.41,10.1.28,16.27,1.4,21,1.4,17.39,1.4,17.39,2,2.81,6.73.56c0,0,2-21.59,1.41-32.81a90.85,90.85,0,0,0-3.37-20.19s1.4-7.58-1.4-10.38" style="fill:#fff;stroke:#263238;stroke-linecap:round;stroke-linejoin:round"></path><path d="M293,161.69s-.28,10.1,1.4,10.1,5.89-10.94,6.45-12.9S293,161.69,293,161.69Z" style="fill:#fff;stroke:#263238;stroke-linecap:round;stroke-linejoin:round"></path><path d="M287.24,142s-.76,9.8,1,13.82,3,9,5.78,9.29,8.79-7.53,8.79-7.53l.75-2a17.36,17.36,0,0,0,3-9.55C306.58,140.46,292,136.94,287.24,142Z" style="fill:#fff;stroke:#263238;stroke-linecap:round;stroke-linejoin:round"></path><polyline points="291.73 150.39 291.11 156.23 293.57 156.84" style="fill:#fff;stroke:#263238;stroke-linecap:round;stroke-linejoin:round;stroke-width:0.75px"></polyline><path d="M290.08,150.41c0,.65-.17,1.18-.38,1.18s-.37-.53-.37-1.18.17-1.19.37-1.19S290.08,149.75,290.08,150.41Z" style="fill:#263238"></path><path d="M295.43,151.9c0,.66-.16,1.19-.37,1.19s-.37-.53-.37-1.19.16-1.18.37-1.18S295.43,151.25,295.43,151.9Z" style="fill:#263238"></path><path d="M293.69,149.16s2.86-.75,4.11,1.37" style="fill:#fff;stroke:#263238;stroke-linecap:round;stroke-linejoin:round;stroke-width:0.75px"></path><path d="M288.46,147.92a1.9,1.9,0,0,1,2.49.87" style="fill:#fff;stroke:#263238;stroke-linecap:round;stroke-linejoin:round;stroke-width:0.75px"></path><path d="M291.2,158.75a2.56,2.56,0,0,0,3.11.5" style="fill:#fff;stroke:#263238;stroke-linecap:round;stroke-linejoin:round;stroke-width:0.75px"></path><path d="M291.51,131.67s-8.54,1.75-7.54,7,9.54,6.78,12.06,6.78a27.26,27.26,0,0,0,5.52-.75s-2.51,2.76-1,4,2.26,2,2.26,2,1.76,1.26,1.76-.25a15.38,15.38,0,0,1,.75-3.76l2.26-.26s3-5.52,2-9.29S301.3,125.89,291.51,131.67Z" style="fill:#263238;stroke:#263238;stroke-linecap:round;stroke-linejoin:round"></path><path d="M302.81,150.75s1.76-6.78,4.77-4.27-2.51,7.54-3.77,7.29" style="fill:#fff;stroke:#263238;stroke-linecap:round;stroke-linejoin:round"></path></g></svg>